<svg xmlns="http://www.w3.org/2000/svg" viewBox="0 0 16 16" style="isolation:isolate" width="16" height="16" preserveAspectRatio="xMinYMid meet"><defs><style>.st0{fill:none}.st1{stroke:#000;stroke-miterlimit:10}</style></defs><path class="st0" d="M14.419 16.181H.678m0-13.807h13.741"/><path d="M1.536 12.902h6.012v.863H1.536v-.863z"/><path class="st1" d="M11.756 13.333c0-.518.344-.863.859-.863s.859.345.859.863-.344.863-.859.863c-.429 0-.859-.431-.859-.863zm.086-3.193c0-.518.344-.863.859-.863s.859.345.859.863-.344.863-.859.863-.859-.431-.859-.863zm0-3.279c0-.518.344-.863.859-.863s.859.345.859.863-.344.863-.859.863-.859-.345-.859-.863zm0-3.193c0-.518.344-.863.859-.863s.859.345.859.863-.344.863-.859.863-.859-.345-.859-.863zm-3.006 9.665c0-.518.344-.863.859-.863s.859.345.859.863-.344.863-.859.863-.859-.431-.859-.863zm0-3.193c0-.518.344-.863.859-.863s.859.345.859.863-.344.863-.859.863c-.429 0-.859-.431-.859-.863zm0-3.279c0-.518.344-.863.859-.863s.859.345.859.863-.344.863-.859.863a.863.863 0 0 1-.859-.863zm0-3.193c0-.518.344-.863.859-.863s.859.345.859.863-.344.863-.859.863a.863.863 0 0 1-.859-.863z" vector-effect="non-scaling-stroke"/><path d="M1.536 3.409h6.012v.863H1.536v-.863zm0 2.934h6.012v.863H1.536v-.863zm0 3.366h6.012v.863H1.536v-.863z"/></svg>
